<svg xmlns="http://www.w3.org/2000/svg" viewBox="0 0 1200 900" font-family="Segoe UI, Arial, sans-serif">
  <defs>
    <filter id="shadow">
      <feDropShadow dx="2" dy="3" stdDeviation="4" flood-opacity="0.15"/>
    </filter>
    <filter id="shadowSm">
      <feDropShadow dx="1" dy="2" stdDeviation="2" flood-opacity="0.12"/>
    </filter>
    <marker id="arrowBlue" markerWidth="10" markerHeight="7" refX="10" refY="3.5" orient="auto">
      <polygon points="0 0, 10 3.5, 0 7" fill="#29b5e8"/>
    </marker>
    <marker id="arrowGreen" markerWidth="10" markerHeight="7" refX="10" refY="3.5" orient="auto">
      <polygon points="0 0, 10 3.5, 0 7" fill="#2ecc71"/>
    </marker>
  </defs>

  <rect width="1200" height="900" fill="#ffffff"/>

  <text x="600" y="45" text-anchor="middle" fill="#1a2940" font-size="28" font-weight="bold">TSG Consumer Partners - Snowflake Intelligence Architecture</text>
  <line x1="200" y1="55" x2="1000" y2="55" stroke="#29b5e8" stroke-width="1" opacity="0.5"/>

  <rect x="30" y="80" width="250" height="200" rx="12" fill="#f0f7fc" stroke="#29b5e8" stroke-width="2" filter="url(#shadow)"/>
  <text x="155" y="108" text-anchor="middle" fill="#29b5e8" font-size="16" font-weight="bold">Data Sources</text>
  <rect x="50" y="120" width="210" height="30" rx="6" fill="#e8f4fd" stroke="#3498db" stroke-width="1" filter="url(#shadowSm)"/>
  <text x="155" y="140" text-anchor="middle" fill="#2c3e50" font-size="12">Portfolio Companies CRM</text>
  <rect x="50" y="158" width="210" height="30" rx="6" fill="#e8f4fd" stroke="#3498db" stroke-width="1" filter="url(#shadowSm)"/>
  <text x="155" y="178" text-anchor="middle" fill="#2c3e50" font-size="12">Market Research and Insights</text>
  <rect x="50" y="196" width="210" height="30" rx="6" fill="#e8f4fd" stroke="#3498db" stroke-width="1" filter="url(#shadowSm)"/>
  <text x="155" y="216" text-anchor="middle" fill="#2c3e50" font-size="12">Financial and Revenue Data</text>
  <rect x="50" y="234" width="210" height="30" rx="6" fill="#e8f4fd" stroke="#3498db" stroke-width="1" filter="url(#shadowSm)"/>
  <text x="155" y="254" text-anchor="middle" fill="#2c3e50" font-size="12">Digital and eCommerce Analytics</text>

  <rect x="340" y="80" width="240" height="200" rx="12" fill="#fef9f0" stroke="#f39c12" stroke-width="2" filter="url(#shadow)"/>
  <text x="460" y="108" text-anchor="middle" fill="#f39c12" font-size="16" font-weight="bold">Ingestion Layer</text>
  <rect x="355" y="120" width="210" height="30" rx="6" fill="#fdf3e0" stroke="#f39c12" stroke-width="1" filter="url(#shadowSm)"/>
  <text x="460" y="140" text-anchor="middle" fill="#2c3e50" font-size="12">Snowpipe Streaming</text>
  <rect x="355" y="158" width="210" height="30" rx="6" fill="#fdf3e0" stroke="#f39c12" stroke-width="1" filter="url(#shadowSm)"/>
  <text x="460" y="178" text-anchor="middle" fill="#2c3e50" font-size="12">Dynamic Tables (CDC)</text>
  <rect x="355" y="196" width="210" height="30" rx="6" fill="#fdf3e0" stroke="#f39c12" stroke-width="1" filter="url(#shadowSm)"/>
  <text x="460" y="216" text-anchor="middle" fill="#2c3e50" font-size="12">Scheduled Tasks</text>
  <rect x="355" y="234" width="210" height="30" rx="6" fill="#fdf3e0" stroke="#f39c12" stroke-width="1" filter="url(#shadowSm)"/>
  <text x="460" y="254" text-anchor="middle" fill="#2c3e50" font-size="12">External API Connectors</text>

  <rect x="640" y="80" width="240" height="200" rx="12" fill="#f0faf4" stroke="#2ecc71" stroke-width="2" filter="url(#shadow)"/>
  <text x="760" y="108" text-anchor="middle" fill="#2ecc71" font-size="16" font-weight="bold">Storage Layer</text>
  <text x="760" y="130" text-anchor="middle" fill="#7f8c8d" font-size="11">TSG_INTELLIGENCE Database</text>
  <rect x="655" y="142" width="210" height="26" rx="6" fill="#e8f8f0" stroke="#2ecc71" stroke-width="1" filter="url(#shadowSm)"/>
  <text x="760" y="160" text-anchor="middle" fill="#2c3e50" font-size="12">RAW Schema</text>
  <rect x="655" y="174" width="210" height="26" rx="6" fill="#e8f8f0" stroke="#2ecc71" stroke-width="1" filter="url(#shadowSm)"/>
  <text x="760" y="192" text-anchor="middle" fill="#2c3e50" font-size="12">ANALYTICS Schema</text>
  <rect x="655" y="206" width="210" height="26" rx="6" fill="#e8f8f0" stroke="#2ecc71" stroke-width="1" filter="url(#shadowSm)"/>
  <text x="760" y="224" text-anchor="middle" fill="#2c3e50" font-size="12">Portfolio Tables</text>
  <rect x="655" y="238" width="210" height="26" rx="6" fill="#e8f8f0" stroke="#2ecc71" stroke-width="1" filter="url(#shadowSm)"/>
  <text x="760" y="256" text-anchor="middle" fill="#2c3e50" font-size="12">Brand and Revenue Tables</text>

  <rect x="940" y="80" width="230" height="200" rx="12" fill="#f5f0fa" stroke="#9b59b6" stroke-width="2" filter="url(#shadow)"/>
  <text x="1055" y="108" text-anchor="middle" fill="#9b59b6" font-size="16" font-weight="bold">Compute Layer</text>
  <rect x="955" y="125" width="200" height="30" rx="6" fill="#ede7f6" stroke="#9b59b6" stroke-width="1" filter="url(#shadowSm)"/>
  <text x="1055" y="145" text-anchor="middle" fill="#2c3e50" font-size="12">TSG_WH (X-Small)</text>
  <rect x="955" y="163" width="200" height="30" rx="6" fill="#ede7f6" stroke="#9b59b6" stroke-width="1" filter="url(#shadowSm)"/>
  <text x="1055" y="183" text-anchor="middle" fill="#2c3e50" font-size="12">ML Training Warehouse</text>
  <rect x="955" y="201" width="200" height="30" rx="6" fill="#ede7f6" stroke="#9b59b6" stroke-width="1" filter="url(#shadowSm)"/>
  <text x="1055" y="221" text-anchor="middle" fill="#2c3e50" font-size="12">Cortex AI Services</text>
  <rect x="955" y="239" width="200" height="30" rx="6" fill="#ede7f6" stroke="#9b59b6" stroke-width="1" filter="url(#shadowSm)"/>
  <text x="1055" y="259" text-anchor="middle" fill="#2c3e50" font-size="12">Serverless Functions</text>

  <line x1="280" y1="180" x2="340" y2="180" stroke="#29b5e8" stroke-width="2" marker-end="url(#arrowBlue)"/>
  <line x1="580" y1="180" x2="640" y2="180" stroke="#2ecc71" stroke-width="2" marker-end="url(#arrowGreen)"/>
  <line x1="880" y1="180" x2="940" y2="180" stroke="#29b5e8" stroke-width="2" marker-end="url(#arrowBlue)"/>

  <rect x="30" y="320" width="350" height="240" rx="12" fill="#f0f7fc" stroke="#29b5e8" stroke-width="2" filter="url(#shadow)"/>
  <text x="205" y="348" text-anchor="middle" fill="#29b5e8" font-size="16" font-weight="bold">Cortex Analyst (Text-to-SQL)</text>
  <rect x="50" y="365" width="310" height="28" rx="6" fill="#e8f4fd" stroke="#29b5e8" stroke-width="1" filter="url(#shadowSm)"/>
  <text x="205" y="384" text-anchor="middle" fill="#2c3e50" font-size="12">Portfolio Performance Semantic View</text>
  <rect x="50" y="400" width="310" height="28" rx="6" fill="#e8f4fd" stroke="#29b5e8" stroke-width="1" filter="url(#shadowSm)"/>
  <text x="205" y="419" text-anchor="middle" fill="#2c3e50" font-size="12">Brand Analytics Semantic View</text>
  <rect x="50" y="435" width="310" height="28" rx="6" fill="#e8f4fd" stroke="#29b5e8" stroke-width="1" filter="url(#shadowSm)"/>
  <text x="205" y="454" text-anchor="middle" fill="#2c3e50" font-size="12">Revenue and Growth Semantic View</text>
  <rect x="50" y="470" width="310" height="28" rx="6" fill="#e8f4fd" stroke="#29b5e8" stroke-width="1" filter="url(#shadowSm)"/>
  <text x="205" y="489" text-anchor="middle" fill="#2c3e50" font-size="12">eCommerce and Digital Semantic View</text>
  <rect x="50" y="505" width="310" height="28" rx="6" fill="#e8f4fd" stroke="#29b5e8" stroke-width="1" filter="url(#shadowSm)"/>
  <text x="205" y="524" text-anchor="middle" fill="#2c3e50" font-size="12">Operational Efficiency Semantic View</text>

  <rect x="420" y="320" width="350" height="240" rx="12" fill="#f0faf4" stroke="#2ecc71" stroke-width="2" filter="url(#shadow)"/>
  <text x="595" y="348" text-anchor="middle" fill="#2ecc71" font-size="16" font-weight="bold">Cortex Search Services</text>
  <rect x="440" y="365" width="310" height="28" rx="6" fill="#e8f8f0" stroke="#2ecc71" stroke-width="1" filter="url(#shadowSm)"/>
  <text x="595" y="384" text-anchor="middle" fill="#2c3e50" font-size="12">Brand Strategy Knowledge Base</text>
  <rect x="440" y="400" width="310" height="28" rx="6" fill="#e8f8f0" stroke="#2ecc71" stroke-width="1" filter="url(#shadowSm)"/>
  <text x="595" y="419" text-anchor="middle" fill="#2c3e50" font-size="12">Market Research Documents</text>
  <rect x="440" y="435" width="310" height="28" rx="6" fill="#e8f8f0" stroke="#2ecc71" stroke-width="1" filter="url(#shadowSm)"/>
  <text x="595" y="454" text-anchor="middle" fill="#2c3e50" font-size="12">Portfolio Company Insights</text>
  <rect x="440" y="470" width="310" height="28" rx="6" fill="#e8f8f0" stroke="#2ecc71" stroke-width="1" filter="url(#shadowSm)"/>
  <text x="595" y="489" text-anchor="middle" fill="#2c3e50" font-size="12">Channel Strategy Playbooks</text>
  <rect x="440" y="505" width="310" height="28" rx="6" fill="#e8f8f0" stroke="#2ecc71" stroke-width="1" filter="url(#shadowSm)"/>
  <text x="595" y="524" text-anchor="middle" fill="#2c3e50" font-size="12">Operations Best Practices</text>

  <rect x="810" y="320" width="360" height="240" rx="12" fill="#fef9f0" stroke="#f39c12" stroke-width="2" filter="url(#shadow)"/>
  <text x="990" y="348" text-anchor="middle" fill="#f39c12" font-size="16" font-weight="bold">ML Models and Functions</text>
  <rect x="830" y="365" width="320" height="28" rx="6" fill="#fdf3e0" stroke="#f39c12" stroke-width="1" filter="url(#shadowSm)"/>
  <text x="990" y="384" text-anchor="middle" fill="#2c3e50" font-size="12">Brand Lifetime Value Prediction</text>
  <rect x="830" y="400" width="320" height="28" rx="6" fill="#fdf3e0" stroke="#f39c12" stroke-width="1" filter="url(#shadowSm)"/>
  <text x="990" y="419" text-anchor="middle" fill="#2c3e50" font-size="12">Portfolio Churn Risk Scoring</text>
  <rect x="830" y="435" width="320" height="28" rx="6" fill="#fdf3e0" stroke="#f39c12" stroke-width="1" filter="url(#shadowSm)"/>
  <text x="990" y="454" text-anchor="middle" fill="#2c3e50" font-size="12">Revenue Growth Forecast</text>
  <rect x="830" y="470" width="320" height="28" rx="6" fill="#fdf3e0" stroke="#f39c12" stroke-width="1" filter="url(#shadowSm)"/>
  <text x="990" y="489" text-anchor="middle" fill="#2c3e50" font-size="12">Market Opportunity Scoring</text>
  <rect x="830" y="505" width="320" height="28" rx="6" fill="#fdf3e0" stroke="#f39c12" stroke-width="1" filter="url(#shadowSm)"/>
  <text x="990" y="524" text-anchor="middle" fill="#2c3e50" font-size="12">Agent UDF Functions</text>

  <rect x="250" y="610" width="700" height="180" rx="16" fill="#e8f4fd" stroke="#29b5e8" stroke-width="3" filter="url(#shadow)"/>
  <rect x="270" y="618" width="660" height="35" rx="8" fill="#29b5e8" opacity="0.1"/>
  <text x="600" y="642" text-anchor="middle" fill="#1a6fa0" font-size="20" font-weight="bold">TSG_AGENT - Snowflake Intelligence Agent</text>

  <rect x="275" y="665" width="150" height="50" rx="8" fill="#f0f7fc" stroke="#29b5e8" stroke-width="1.5" filter="url(#shadowSm)"/>
  <text x="350" y="686" text-anchor="middle" fill="#29b5e8" font-size="11" font-weight="bold">Orchestration</text>
  <text x="350" y="702" text-anchor="middle" fill="#7f8c8d" font-size="10">Auto Model Routing</text>

  <rect x="440" y="665" width="150" height="50" rx="8" fill="#f0faf4" stroke="#2ecc71" stroke-width="1.5" filter="url(#shadowSm)"/>
  <text x="515" y="686" text-anchor="middle" fill="#2ecc71" font-size="11" font-weight="bold">Tool Router</text>
  <text x="515" y="702" text-anchor="middle" fill="#7f8c8d" font-size="10">Analyst + Search + UDFs</text>

  <rect x="605" y="665" width="150" height="50" rx="8" fill="#fef9f0" stroke="#f39c12" stroke-width="1.5" filter="url(#shadowSm)"/>
  <text x="680" y="686" text-anchor="middle" fill="#f39c12" font-size="11" font-weight="bold">Response Engine</text>
  <text x="680" y="702" text-anchor="middle" fill="#7f8c8d" font-size="10">Context-Aware Output</text>

  <rect x="770" y="665" width="150" height="50" rx="8" fill="#f5f0fa" stroke="#9b59b6" stroke-width="1.5" filter="url(#shadowSm)"/>
  <text x="845" y="686" text-anchor="middle" fill="#9b59b6" font-size="11" font-weight="bold">Budget Control</text>
  <text x="845" y="702" text-anchor="middle" fill="#7f8c8d" font-size="10">60s / 32K tokens</text>

  <rect x="275" y="730" width="320" height="40" rx="8" fill="#fde8e8" stroke="#e74c3c" stroke-width="1" filter="url(#shadowSm)"/>
  <text x="435" y="755" text-anchor="middle" fill="#e74c3c" font-size="11">Sample Questions and Instructions</text>
  <rect x="610" y="730" width="310" height="40" rx="8" fill="#e8f8f0" stroke="#1abc9c" stroke-width="1" filter="url(#shadowSm)"/>
  <text x="765" y="755" text-anchor="middle" fill="#1abc9c" font-size="11">Profile: TSG Consumer Assistant</text>

  <line x1="205" y1="560" x2="450" y2="610" stroke="#29b5e8" stroke-width="1.5" stroke-dasharray="6,3" marker-end="url(#arrowBlue)"/>
  <line x1="595" y1="560" x2="580" y2="610" stroke="#2ecc71" stroke-width="1.5" stroke-dasharray="6,3" marker-end="url(#arrowGreen)"/>
  <line x1="990" y1="560" x2="750" y2="610" stroke="#f39c12" stroke-width="1.5" stroke-dasharray="6,3"/>

  <text x="600" y="870" text-anchor="middle" fill="#95a5a6" font-size="11">TSG Consumer Partners - Snowflake Intelligence Architecture v1.0 - March 2026</text>
</svg>